HIERARCHY
ROOT Hips
{
	OFFSET	0.00	0.00	0.00
	CHANNELS 6 Xposition Yposition Zposition Zrotation Xrotation Yrotation
	JOINT LeftUpperLeg
	{
		OFFSET	-0.060319	-0.072984	 0.002079
		CHANNELS 3 Zrotation Xrotation Yrotation
		JOINT LeftLowerLeg
		{
			OFFSET	 0.351798	-0.005146	-0.008011
			CHANNELS 3 Zrotation Xrotation Yrotation
			JOINT LeftFoot
			{
				OFFSET	 0.378666	 0.003778	 0.003828
				CHANNELS 3 Zrotation Xrotation Yrotation
				JOINT LeftToes
				{
					OFFSET	 0.084296	 0.003922	 0.047710
					CHANNELS 3 Zrotation Xrotation Yrotation
					End Site
					{
						OFFSET	 0.084296	 0.003922	 0.047710
					}
				}
			}
		}
	}
	JOINT RightUpperLeg
	{
		OFFSET	-0.060836	 0.072553	 0.002079
		CHANNELS 3 Zrotation Xrotation Yrotation
		JOINT RightLowerLeg
		{
			OFFSET	 0.351363	 0.018233	-0.008011
			CHANNELS 3 Zrotation Xrotation Yrotation
			JOINT RightFoot
			{
				OFFSET	 0.378545	 0.010315	 0.003824
				CHANNELS 3 Zrotation Xrotation Yrotation
				JOINT RightToes
				{
					OFFSET	 0.084392	-0.002027	 0.047660
					CHANNELS 3 Zrotation Xrotation Yrotation
					End Site
					{
						OFFSET	 0.084392	-0.002027	 0.047660
					}
				}
			}
		}
	}
	JOINT Character1_Spine
	{
		OFFSET	 0.022713	 0.000080	 0.008181
		CHANNELS 3 Zrotation Xrotation Yrotation
		JOINT Spine
		{
			OFFSET	 0.091343	 0.000000	 0.001755
			CHANNELS 3 Zrotation Xrotation Yrotation
			JOINT Chest
			{
				OFFSET	 0.087667	 0.000000	-0.000304
				CHANNELS 3 Zrotation Xrotation Yrotation
				JOINT LeftShoulder
				{
					OFFSET	 0.122367	-0.042227	-0.001395
					CHANNELS 3 Zrotation Xrotation Yrotation
					JOINT LeftUpperArm
					{
						OFFSET	 0.055437	-0.000001	 0.000000
						CHANNELS 3 Zrotation Xrotation Yrotation
						JOINT LeftLowerArm
						{
							OFFSET	 0.233777	-0.000011	 0.000017
							CHANNELS 3 Zrotation Xrotation Yrotation
							JOINT LeftHand
							{
								OFFSET	 0.162482	 0.000000	-0.000001
								CHANNELS 3 Zrotation Xrotation Yrotation
								JOINT LeftIndexProximal
								{
									OFFSET	 0.080750	 0.001428	 0.025713
									CHANNELS 3 Zrotation Xrotation Yrotation
									JOINT LeftIndexIntermediate
									{
										OFFSET	 0.024260	 0.001187	 0.002507
										CHANNELS 3 Zrotation Xrotation Yrotation
										JOINT LeftIndexDistal
										{
											OFFSET	 0.016097	 0.000458	 0.000118
											CHANNELS 3 Zrotation Xrotation Yrotation
											End Site
											{
												OFFSET	 0.016097	 0.000458	 0.000118
											}
										}
									}
								}
								JOINT LeftMiddleProximal
								{
									OFFSET	 0.080696	 0.006021	 0.005822
									CHANNELS 3 Zrotation Xrotation Yrotation
									JOINT LeftMiddleIntermediate
									{
										OFFSET	 0.025063	-0.003793	 0.001482
										CHANNELS 3 Zrotation Xrotation Yrotation
										JOINT LeftMiddleDistal
										{
											OFFSET	 0.019431	-0.000162	-0.000068
											CHANNELS 3 Zrotation Xrotation Yrotation
											End Site
											{
												OFFSET	 0.019431	-0.000162	-0.000068
											}
										}
									}
								}
								JOINT LeftLittleProximal
								{
									OFFSET	 0.065753	 0.002283	-0.027836
									CHANNELS 3 Zrotation Xrotation Yrotation
									JOINT LeftLittleIntermediate
									{
										OFFSET	 0.018097	 0.000014	 0.000133
										CHANNELS 3 Zrotation Xrotation Yrotation
										JOINT LeftLittleDistal
										{
											OFFSET	 0.013911	-0.000247	 0.000003
											CHANNELS 3 Zrotation Xrotation Yrotation
											End Site
											{
												OFFSET	 0.013911	-0.000247	 0.000003
											}
										}
									}
								}
								JOINT LeftRingProximal
								{
									OFFSET	 0.076793	 0.006246	-0.012626
									CHANNELS 3 Zrotation Xrotation Yrotation
									JOINT LeftRingIntermediate
									{
										OFFSET	 0.023683	-0.001098	-0.000754
										CHANNELS 3 Zrotation Xrotation Yrotation
										JOINT LeftRingDistal
										{
											OFFSET	 0.015907	 0.000860	 0.000167
											CHANNELS 3 Zrotation Xrotation Yrotation
											End Site
											{
												OFFSET	 0.015907	 0.000860	 0.000167
											}
										}
									}
								}
								JOINT LeftThumbProximal
								{
									OFFSET	 0.024761	-0.014236	 0.018266
									CHANNELS 3 Zrotation Xrotation Yrotation
									JOINT LeftThumbIntermediate
									{
										OFFSET	 0.032146	-0.001523	 0.001986
										CHANNELS 3 Zrotation Xrotation Yrotation
										JOINT LeftThumbDistal
										{
											OFFSET	 0.017566	-0.000085	-0.001004
											CHANNELS 3 Zrotation Xrotation Yrotation
											End Site
											{
												OFFSET	 0.017566	-0.000085	-0.001004
											}
										}
									}
								}
							}
						}
					}
				}
				JOINT Neck
				{
					OFFSET	 0.156851	-0.000286	 0.008298
					CHANNELS 3 Zrotation Xrotation Yrotation
					JOINT Head
					{
						OFFSET	 0.078083	 0.000000	-0.005534
						CHANNELS 3 Zrotation Xrotation Yrotation
						End Site
						{
							OFFSET	 0.078083	 0.000000	-0.005534
						}
					}
				}
				JOINT RightShoulder
				{
					OFFSET	 0.122455	 0.041994	-0.000150
					CHANNELS 3 Zrotation Xrotation Yrotation
					JOINT RightUpperArm
					{
						OFFSET	 0.055437	 0.000001	 0.000000
						CHANNELS 3 Zrotation Xrotation Yrotation
						JOINT RightLowerArm
						{
							OFFSET	 0.233779	 0.000012	 0.000017
							CHANNELS 3 Zrotation Xrotation Yrotation
							JOINT RightHand
							{
								OFFSET	 0.162480	-0.000002	-0.000001
								CHANNELS 3 Zrotation Xrotation Yrotation
								JOINT RightIndexProximal
								{
									OFFSET	 0.077459	-0.023877	 0.024774
									CHANNELS 3 Zrotation Xrotation Yrotation
									JOINT RightIndexIntermediate
									{
										OFFSET	 0.024233	 0.002008	-0.002230
										CHANNELS 3 Zrotation Xrotation Yrotation
										JOINT RightIndexDistal
										{
											OFFSET	 0.015886	 0.002643	 0.000001
											CHANNELS 3 Zrotation Xrotation Yrotation
											End Site
											{
												OFFSET	 0.015886	 0.002643	 0.000001
											}
										}
									}
								}
								JOINT RightMiddleProximal
								{
									OFFSET	 0.077341	-0.024111	 0.004360
									CHANNELS 3 Zrotation Xrotation Yrotation
									JOINT RightMiddleIntermediate
									{
										OFFSET	 0.025355	-0.001169	-0.000680
										CHANNELS 3 Zrotation Xrotation Yrotation
										JOINT RightMiddleDistal
										{
											OFFSET	 0.019416	 0.000705	-0.000417
											CHANNELS 3 Zrotation Xrotation Yrotation
											End Site
											{
												OFFSET	 0.019416	 0.000705	-0.000417
											}
										}
									}
								}
								JOINT RightLittleProximal
								{
									OFFSET	 0.065019	-0.010365	-0.027722
									CHANNELS 3 Zrotation Xrotation Yrotation
									JOINT RightLittleIntermediate
									{
										OFFSET	 0.018098	 0.000052	-0.000144
										CHANNELS 3 Zrotation Xrotation Yrotation
										JOINT RightLittleDistal
										{
											OFFSET	 0.013886	-0.000828	 0.000267
											CHANNELS 3 Zrotation Xrotation Yrotation
											End Site
											{
												OFFSET	 0.013886	-0.000828	 0.000267
											}
										}
									}
								}
								JOINT RightRingProximal
								{
									OFFSET	 0.074304	-0.019655	-0.013711
									CHANNELS 3 Zrotation Xrotation Yrotation
									JOINT RightRingIntermediate
									{
										OFFSET	 0.023458	 0.003508	-0.000008
										CHANNELS 3 Zrotation Xrotation Yrotation
										JOINT RightRingDistal
										{
											OFFSET	 0.015893	-0.000379	-0.001033
											CHANNELS 3 Zrotation Xrotation Yrotation
											End Site
											{
												OFFSET	 0.015893	-0.000379	-0.001033
											}
										}
									}
								}
								JOINT RightThumbProximal
								{
									OFFSET	 0.026339	 0.004527	 0.020861
									CHANNELS 3 Zrotation Xrotation Yrotation
									JOINT RightThumbIntermediate
									{
										OFFSET	 0.032030	-0.000602	 0.001128
										CHANNELS 3 Zrotation Xrotation Yrotation
										JOINT RightThumbDistal
										{
											OFFSET	 0.017586	-0.000153	 0.000511
											CHANNELS 3 Zrotation Xrotation Yrotation
											End Site
											{
												OFFSET	 0.017586	-0.000153	 0.000511
											}
										}
									}
								}
							}
						}
					}
				}
			}
		}
	}
}
MOTION
Frames:    4
Frame Time: 0.01666667
 0.006706	-4.941552	 0.833310	 91.995010	-0.239065	-99.720140	 176.355200	 8.052489	-33.922180	 2.718150	 1.939723	 47.756410	 0.042621	-1.767565	-44.481150	-2.826674	-1.476236	-62.555960	-177.551200	 0.723407	-37.982760	-1.646666	 1.189967	 83.892310	-2.799387	-1.740657	 29.421380	 0.003016	-0.006121	-62.519580	 0.203542	 0.000000	-4.902169	-0.102095	 0.528553	-1.476043	-0.370611	-2.618358	 0.197068	-86.202640	 18.346810	 6.736410	-62.934540	 10.052160	-9.179552	 1.608783	-6.245598	-69.152740	 1.543825	-12.104910	-31.223200	-16.220040	 12.799320	 22.848320	-46.760210	 0.086491	-0.447734	-65.113910	-0.034518	 0.299777	-10.501360	 8.460038	 11.112200	-71.727080	-5.008601	 6.021435	-87.598450	-12.306730	 14.793060	-14.353900	-15.166870	-3.905462	-30.397220	-0.130827	 17.520220	-88.561950	-25.462440	 30.191190	-40.601140	-13.944200	 3.045877	-37.014020	-1.283422	 11.655460	-106.245700	-29.310940	 19.131920	 111.739800	 49.854880	-126.332300	-19.032000	 0.543748	-9.628601	-25.348620	-0.976150	-0.758763	 0.304598	-0.225087	-8.168647	 0.561000	 1.983354	 22.708110	 85.296140	-17.892920	-4.398631	 66.599690	-3.816277	-18.621350	-0.515185	 15.823700	-74.315090	 12.548220	-3.612308	-17.601730	-172.226000	-9.401181	 172.519800	-57.540050	 2.064752	-6.422209	-73.079940	 1.300126	-5.111492	-164.907000	-8.457396	-173.687700	-64.331030	 2.051091	-9.780326	-90.402890	 6.371135	-8.306229	 175.404600	-28.033810	-171.241900	-26.573760	 4.412527	-17.509490	-84.322620	 32.402790	-38.465580	-135.157600	-22.770110	-160.790200	-17.684700	-0.625923	-13.850870	-92.637790	 20.685000	-23.982440	 49.686470	 53.766040	-56.525550	-20.810600	 3.803964	 8.623063	-30.770560	-2.362350	 9.390672
 0.006657	-5.083393	 0.835792	 91.999250	-0.239695	-99.718460	 175.684100	 8.041421	-25.921630	 2.934402	 1.574308	 46.717500	 0.398306	-2.179082	-46.709340	-2.826675	-1.476235	-62.555980	-177.948100	 1.500467	-47.831840	-0.923921	 0.970574	 90.642380	-2.907930	-1.779928	 21.818130	 0.003016	-0.006121	-62.519620	 0.203542	 0.000000	-4.902169	-0.102364	 0.528535	-1.458661	-0.011406	-3.674188	 0.157633	-86.556370	 18.327870	 6.846388	-62.104970	 10.333470	-16.830270	 2.216094	-7.251143	-76.589420	-0.016959	-11.091670	-30.021560	-16.219990	 12.799330	 22.848350	-46.760150	 0.086494	-0.447734	-65.113840	-0.034515	 0.299780	-10.501370	 8.460033	 11.112210	-71.727020	-5.008592	 6.021430	-87.598450	-12.306730	 14.793060	-14.353830	-15.166860	-3.905404	-30.397220	-0.130827	 17.520220	-88.561970	-25.462450	 30.191200	-40.601140	-13.944200	 3.045877	-37.014070	-1.283425	 11.655480	-106.245700	-29.310930	 19.131920	 111.739800	 49.854920	-126.332400	-19.032030	 0.543753	-9.628608	-25.348590	-0.976151	-0.758758	 0.321004	 0.349654	-8.202939	 0.456778	 2.468011	 22.637010	 85.696520	-17.921180	-4.076828	 68.593860	-4.552217	-9.750265	-0.472297	 13.944180	-71.343250	 13.403770	-3.251754	-15.386190	-172.226000	-9.401175	 172.519700	-57.540050	 2.064752	-6.422209	-73.080040	 1.300130	-5.111494	-164.907000	-8.457398	-173.687700	-64.330970	 2.051083	-9.780325	-90.402930	 6.371139	-8.306227	 175.404600	-28.033810	-171.241900	-26.573700	 4.412519	-17.509470	-84.322640	 32.402810	-38.465590	-135.157600	-22.770140	-160.790300	-17.684690	-0.625927	-13.850860	-92.637890	 20.685050	-23.982440	 49.686470	 53.765980	-56.525460	-20.810600	 3.803964	 8.623063	-30.770560	-2.362350	 9.390672
 0.005965	-5.226868	 0.845460	 92.002520	-0.240539	-99.717290	 175.513400	 7.267590	-17.176860	 2.628519	 1.157964	 40.487770	 1.073208	-2.066676	-44.874560	-2.826674	-1.476236	-62.555960	-178.401800	 2.131796	-54.892250	-0.098250	 0.689801	 103.106700	-2.862505	-1.371325	 10.074620	 0.003016	-0.006121	-62.519700	 0.203542	 0.000000	-4.902169	-0.110413	 0.526331	-1.511213	 0.172509	-4.439997	 0.041756	-86.834990	 18.312490	 6.933132	-60.795280	 10.155250	-22.692470	 2.372466	-8.091682	-80.261200	-1.051999	-10.679090	-29.045710	-16.219960	 12.799340	 22.848400	-46.760310	 0.086493	-0.447735	-65.113840	-0.034515	 0.299780	-10.501320	 8.460052	 11.112230	-71.727110	-5.008605	 6.021439	-87.598450	-12.306730	 14.793060	-14.353840	-15.166860	-3.905422	-30.397260	-0.130842	 17.520240	-88.561950	-25.462440	 30.191190	-40.601200	-13.944220	 3.045886	-37.014020	-1.283422	 11.655460	-106.245800	-29.310970	 19.131910	 111.739900	 49.854970	-126.332300	-19.032000	 0.543748	-9.628601	-25.348680	-0.976149	-0.758776	 0.338055	 0.848334	-8.696436	 0.394742	 2.916598	 21.839430	 85.988680	-17.940420	-3.842080	 69.231870	-4.569367	-3.470306	-0.319909	 12.709550	-68.862680	 13.941670	-2.827688	-13.772080	-172.226000	-9.401175	 172.519700	-57.539970	 2.064737	-6.422201	-73.080040	 1.300130	-5.111494	-164.907000	-8.457390	-173.687700	-64.330930	 2.051079	-9.780315	-90.402950	 6.371144	-8.306225	 175.404600	-28.033820	-171.241900	-26.573720	 4.412522	-17.509480	-84.322620	 32.402790	-38.465580	-135.157600	-22.770140	-160.790300	-17.684700	-0.625923	-13.850870	-92.637930	 20.685070	-23.982440	 49.686540	 53.765910	-56.525520	-20.810610	 3.803962	 8.623068	-30.770500	-2.362329	 9.390651
 0.005077	-5.372326	 0.860346	 92.006180	-0.241540	-99.715940	 176.338900	 3.445511	-7.580359	 1.586968	 0.602978	 32.421750	 2.867155	 0.859000	-38.400080	-2.826675	-1.476235	-62.555980	-178.674800	 2.494000	-61.303450	 0.642844	 0.535431	 111.697500	-2.554009	-0.978001	-2.568634	 0.003016	-0.006121	-62.519590	 0.203542	 0.000000	-4.902169	-0.123720	 0.522906	-1.606853	 0.354860	-5.353152	-0.130901	-87.177470	 18.293050	 7.039894	-58.263410	 9.295649	-29.548590	 2.523351	-8.987409	-83.413530	-2.181035	-10.259900	-27.949170	-16.219930	 12.799330	 22.848330	-46.760350	 0.086492	-0.447734	-65.113910	-0.034518	 0.299777	-10.501340	 8.460040	 11.112200	-71.727070	-5.008601	 6.021436	-87.598450	-12.306730	 14.793060	-14.353840	-15.166870	-3.905474	-30.397240	-0.130837	 17.520230	-88.561950	-25.462440	 30.191190	-40.601220	-13.944220	 3.045841	-37.014060	-1.283421	 11.655470	-106.245700	-29.310940	 19.131920	 111.739800	 49.854930	-126.332300	-19.031940	 0.543741	-9.628590	-25.348760	-0.976140	-0.758795	 0.360029	 1.475559	-9.509037	 0.332861	 3.368976	 21.158940	 86.351680	-17.962750	-3.550409	 69.343050	-3.725975	 3.465484	-0.317324	 11.910700	-61.630490	 14.427590	-2.495637	-11.940400	-172.226000	-9.401141	 172.519400	-57.539910	 2.064734	-6.422198	-73.080120	 1.300147	-5.111491	-164.906900	-8.457350	-173.688000	-64.330870	 2.051065	-9.780311	-90.403080	 6.371165	-8.306227	 175.404500	-28.033790	-171.242000	-26.573590	 4.412480	-17.509410	-84.322700	 32.402850	-38.465600	-135.157700	-22.770240	-160.790600	-17.684710	-0.625921	-13.850870	-92.637970	 20.685080	-23.982440	 49.686170	 53.766120	-56.524920	-20.810440	 3.803979	 8.622992	-30.770580	-2.362353	 9.390678
